# Blender 3.6.0
# www.blender.org
mtllib Capsule01.mtl
o Capsule01
v -0.000000 0.225791 0.936754
v 0.000000 0.411028 0.726616
v -0.000000 0.730384 -0.073870
v 0.000000 0.923880 -1.271880
v 0.086407 0.208604 0.936754
v 0.157293 0.379740 0.726616
v 0.217043 0.523988 0.385370
v 0.279506 0.674786 -0.073870
v 0.324921 0.784429 -0.633455
v 0.353553 0.853553 -1.271880
v 0.159659 0.159659 0.936754
v 0.290640 0.290640 0.726616
v 0.401043 0.401043 0.385370
v 0.516459 0.516459 -0.073870
v 0.600376 0.600376 -0.633455
v 0.653282 0.653282 -1.271880
v 0.208604 0.086407 0.936754
v 0.379740 0.157293 0.726616
v 0.523988 0.217043 0.385370
v 0.674786 0.279506 -0.073870
v 0.784430 0.324921 -0.633455
v 0.853553 0.353553 -1.271880
v 0.225791 -0.000000 0.936754
v 0.411028 -0.000000 0.726616
v 0.567160 -0.000000 0.385370
v 0.730383 -0.000000 -0.073870
v 0.849060 -0.000000 -0.633455
v 0.923880 -0.000000 -1.271880
v 0.208604 -0.086407 0.936754
v 0.379740 -0.157294 0.726616
v 0.523988 -0.217043 0.385370
v 0.674786 -0.279506 -0.073870
v 0.784429 -0.324921 -0.633455
v 0.853553 -0.353554 -1.271880
v 0.159659 -0.159659 0.936754
v 0.290640 -0.290641 0.726616
v 0.401043 -0.401043 0.385370
v 0.516459 -0.516459 -0.073870
v 0.600376 -0.600376 -0.633455
v 0.653281 -0.653282 -1.271880
v 0.086407 -0.208604 0.936754
v 0.157293 -0.379740 0.726615
v 0.217043 -0.523988 0.385370
v 0.279505 -0.674786 -0.073870
v 0.324921 -0.784429 -0.633455
v 0.353553 -0.853553 -1.271881
v -0.000000 -0.225791 0.936754
v -0.000000 -0.411028 0.726615
v -0.000000 -0.567160 0.385370
v -0.000000 -0.730383 -0.073870
v -0.000000 -0.849060 -0.633455
v -0.000000 -0.923879 -1.271881
v -0.086407 -0.208604 0.936754
v -0.157294 -0.379740 0.726615
v -0.217043 -0.523988 0.385370
v -0.279506 -0.674786 -0.073870
v -0.324922 -0.784429 -0.633455
v -0.353554 -0.853553 -1.271881
v -0.159659 -0.159659 0.936754
v -0.290641 -0.290640 0.726616
v -0.401043 -0.401043 0.385370
v -0.516459 -0.516459 -0.073870
v -0.600376 -0.600376 -0.633455
v -0.653282 -0.653281 -1.271880
v -0.208604 -0.086407 0.936754
v -0.379740 -0.157293 0.726616
v -0.523988 -0.217043 0.385370
v -0.674786 -0.279505 -0.073870
v -0.784430 -0.324921 -0.633455
v -0.853553 -0.353553 -1.271880
v 0.000000 -0.000000 1.007709
v -0.225791 0.000000 0.936754
v -0.411028 0.000000 0.726616
v -0.567160 0.000000 0.385370
v -0.730383 0.000000 -0.073870
v -0.849060 0.000000 -0.633455
v -0.923879 0.000000 -1.271880
v -0.208604 0.086407 0.936754
v -0.379740 0.157294 0.726616
v -0.523988 0.217043 0.385370
v -0.674786 0.279506 -0.073870
v -0.784429 0.324922 -0.633455
v -0.853553 0.353554 -1.271880
v -0.159659 0.159659 0.936754
v -0.290640 0.290641 0.726616
v -0.401043 0.401043 0.385370
v -0.516459 0.516459 -0.073870
v -0.600376 0.600377 -0.633455
v -0.653281 0.653282 -1.271880
v -0.086406 0.208604 0.936754
v -0.157293 0.379740 0.726616
v -0.217043 0.523988 0.385370
v -0.279505 0.674786 -0.073870
v -0.324921 0.784430 -0.633455
v -0.353553 0.853553 -1.271880
v 0.000000 0.567160 0.385370
v 0.000000 0.849060 -0.633455
vn -0.0000 0.9274 0.3740
vn -0.0000 0.8440 0.5364
vn 0.3230 0.7797 0.5364
vn 0.3549 0.8568 0.3740
vn -0.0000 0.9630 0.2697
vn 0.3685 0.8897 0.2697
vn -0.0000 0.9869 0.1612
vn 0.3777 0.9118 0.1612
vn -0.0000 0.9932 0.1164
vn 0.3801 0.9176 0.1164
vn -0.0000 0.5677 0.8232
vn -0.0000 -0.0000 1.0000
vn 0.2173 0.5245 0.8232
vn 0.4014 0.4014 0.8232
vn 0.5968 0.5968 0.5364
vn 0.6558 0.6558 0.3740
vn 0.6809 0.6809 0.2697
vn 0.6979 0.6979 0.1612
vn 0.7023 0.7023 0.1164
vn 0.9118 0.3777 0.1612
vn 0.9176 0.3801 0.1164
vn 0.5245 0.2173 0.8232
vn 0.7797 0.3230 0.5364
vn 0.8568 0.3549 0.3740
vn 0.8897 0.3685 0.2697
vn 0.8440 -0.0000 0.5364
vn 0.9274 -0.0000 0.3740
vn 0.9630 -0.0000 0.2697
vn 0.9869 -0.0000 0.1612
vn 0.9932 -0.0000 0.1164
vn 0.5677 -0.0000 0.8232
vn 0.5245 -0.2173 0.8232
vn 0.7797 -0.3230 0.5364
vn 0.8568 -0.3549 0.3740
vn 0.8897 -0.3685 0.2697
vn 0.9118 -0.3777 0.1612
vn 0.9176 -0.3801 0.1164
vn 0.5968 -0.5968 0.5364
vn 0.6558 -0.6558 0.3740
vn 0.6809 -0.6809 0.2697
vn 0.6979 -0.6979 0.1612
vn 0.7023 -0.7023 0.1164
vn 0.4014 -0.4014 0.8232
vn 0.2173 -0.5245 0.8232
vn 0.3230 -0.7797 0.5364
vn 0.3549 -0.8568 0.3740
vn 0.3685 -0.8897 0.2697
vn 0.3777 -0.9118 0.1612
vn 0.3801 -0.9176 0.1164
vn -0.0000 -0.9274 0.3740
vn -0.0000 -0.9630 0.2697
vn -0.0000 -0.9869 0.1612
vn -0.0000 -0.9932 0.1164
vn -0.0000 -0.5677 0.8232
vn -0.0000 -0.8440 0.5364
vn -0.2173 -0.5245 0.8232
vn -0.3230 -0.7797 0.5364
vn -0.3549 -0.8568 0.3740
vn -0.3685 -0.8897 0.2697
vn -0.3777 -0.9118 0.1612
vn -0.3801 -0.9176 0.1164
vn -0.6558 -0.6558 0.3740
vn -0.6809 -0.6809 0.2697
vn -0.6979 -0.6979 0.1612
vn -0.7023 -0.7023 0.1164
vn -0.4014 -0.4014 0.8232
vn -0.5968 -0.5968 0.5364
vn -0.5245 -0.2173 0.8232
vn -0.7797 -0.3230 0.5364
vn -0.8568 -0.3549 0.3740
vn -0.8897 -0.3685 0.2697
vn -0.9118 -0.3777 0.1612
vn -0.9176 -0.3801 0.1164
vn -0.9630 -0.0000 0.2697
vn -0.9869 -0.0000 0.1612
vn -0.9932 -0.0000 0.1164
vn -0.5677 -0.0000 0.8232
vn -0.8440 -0.0000 0.5364
vn -0.9274 -0.0000 0.3740
vn -0.5245 0.2173 0.8232
vn -0.7797 0.3230 0.5364
vn -0.8568 0.3549 0.3740
vn -0.8897 0.3685 0.2697
vn -0.9118 0.3777 0.1612
vn -0.9176 0.3801 0.1164
vn -0.6979 0.6979 0.1612
vn -0.7023 0.7023 0.1164
vn -0.4014 0.4014 0.8232
vn -0.5968 0.5968 0.5364
vn -0.6558 0.6558 0.3740
vn -0.6809 0.6809 0.2697
vn -0.2173 0.5245 0.8232
vn -0.3230 0.7797 0.5364
vn -0.3549 0.8568 0.3740
vn -0.3685 0.8897 0.2697
vn -0.3777 0.9118 0.1612
vn -0.3801 0.9176 0.1164
vt 0.750000 0.564453
vt 0.750000 0.751953
vt 0.687500 0.751953
vt 0.687500 0.564453
vt 0.750000 0.373047
vt 0.687500 0.373047
vt 0.750000 0.175781
vt 0.687500 0.175781
vt 0.750000 0.000000
vt 0.687500 0.000000
vt 0.750000 0.894532
vt 0.718750 1.000000
vt 0.687500 0.894532
vt 0.625000 0.894532
vt 0.625000 0.751953
vt 0.625000 0.564453
vt 0.625000 0.373047
vt 0.625000 0.175781
vt 0.625000 0.000000
vt 0.656250 1.000000
vt 0.562500 0.175781
vt 0.562500 0.000000
vt 0.593750 1.000000
vt 0.562500 0.894532
vt 0.562500 0.751953
vt 0.562500 0.564453
vt 0.562500 0.373047
vt 0.500000 0.751953
vt 0.500000 0.564453
vt 0.500000 0.373047
vt 0.500000 0.175781
vt 0.500000 0.000000
vt 0.531250 1.000000
vt 0.500000 0.894532
vt 0.468750 1.000000
vt 0.437500 0.894532
vt 0.437500 0.751953
vt 0.437500 0.564453
vt 0.437500 0.373047
vt 0.437500 0.175781
vt 0.437500 0.000000
vt 0.375000 0.751953
vt 0.375000 0.564453
vt 0.375000 0.373047
vt 0.375000 0.175781
vt 0.375000 0.000000
vt 0.406250 1.000000
vt 0.375000 0.894532
vt 0.343750 1.000000
vt 0.312500 0.894532
vt 0.312500 0.751953
vt 0.312500 0.564453
vt 0.312500 0.373047
vt 0.312500 0.175781
vt 0.312500 0.000000
vt 0.250000 0.564453
vt 0.250000 0.373047
vt 0.250000 0.175781
vt 0.250000 0.000000
vt 0.281250 1.000000
vt 0.250000 0.894532
vt 0.250000 0.751953
vt 0.218750 1.000000
vt 0.187500 0.894532
vt 0.187500 0.751953
vt 0.187500 0.564453
vt 0.187500 0.373047
vt 0.187500 0.175781
vt 0.187500 0.000000
vt 0.125000 0.564453
vt 0.125000 0.373047
vt 0.125000 0.175781
vt 0.125000 0.000000
vt 0.156250 1.000000
vt 0.125000 0.894532
vt 0.125000 0.751953
vt 0.093750 1.000000
vt 0.062500 0.894532
vt 0.062500 0.751953
vt 0.062500 0.564453
vt 0.062500 0.373047
vt 0.062500 0.175781
vt 0.062500 0.000000
vt -0.000000 0.373047
vt 0.000000 0.175781
vt -0.000000 0.000000
vt 0.031250 1.000000
vt -0.000000 0.894532
vt -0.000000 0.751953
vt -0.000000 0.564453
vt 1.000000 0.751953
vt 1.000000 0.894532
vt 0.937500 0.894532
vt 0.937500 0.751953
vt 1.000000 0.564453
vt 0.937500 0.564453
vt 1.000000 0.373047
vt 0.937500 0.373047
vt 1.000000 0.175781
vt 0.937500 0.175781
vt 1.000000 0.000000
vt 0.937500 0.000000
vt 0.968750 1.000000
vt 0.875000 0.175781
vt 0.875000 0.000000
vt 0.906250 1.000000
vt 0.875000 0.894532
vt 0.875000 0.751953
vt 0.875000 0.564453
vt 0.875000 0.373047
vt 0.812500 0.894532
vt 0.812500 0.751953
vt 0.812500 0.564453
vt 0.812500 0.373047
vt 0.812500 0.175781
vt 0.812500 0.000000
vt 0.843750 1.000000
vt 0.781250 1.000000
s 1
f 96/1/1 2/2/2 6/3/3 7/4/4
f 3/5/5 96/1/1 7/4/4 8/6/6
f 97/7/7 3/5/5 8/6/6 9/8/8
f 4/9/9 97/7/7 9/8/8 10/10/10
f 1/11/11 71/12/12 5/13/13
f 2/2/2 1/11/11 5/13/13 6/3/3
f 6/3/3 5/13/13 11/14/14 12/15/15
f 7/4/4 6/3/3 12/15/15 13/16/16
f 8/6/6 7/4/4 13/16/16 14/17/17
f 9/8/8 8/6/6 14/17/17 15/18/18
f 10/10/10 9/8/8 15/18/18 16/19/19
f 5/13/13 71/20/12 11/14/14
f 16/19/19 15/18/18 21/21/20 22/22/21
f 11/14/14 71/23/12 17/24/22
f 12/15/15 11/14/14 17/24/22 18/25/23
f 13/16/16 12/15/15 18/25/23 19/26/24
f 14/17/17 13/16/16 19/26/24 20/27/25
f 15/18/18 14/17/17 20/27/25 21/21/20
f 19/26/24 18/25/23 24/28/26 25/29/27
f 20/27/25 19/26/24 25/29/27 26/30/28
f 21/21/20 20/27/25 26/30/28 27/31/29
f 22/22/21 21/21/20 27/31/29 28/32/30
f 17/24/22 71/33/12 23/34/31
f 18/25/23 17/24/22 23/34/31 24/28/26
f 23/34/31 71/35/12 29/36/32
f 24/28/26 23/34/31 29/36/32 30/37/33
f 25/29/27 24/28/26 30/37/33 31/38/34
f 26/30/28 25/29/27 31/38/34 32/39/35
f 27/31/29 26/30/28 32/39/35 33/40/36
f 28/32/30 27/31/29 33/40/36 34/41/37
f 31/38/34 30/37/33 36/42/38 37/43/39
f 32/39/35 31/38/34 37/43/39 38/44/40
f 33/40/36 32/39/35 38/44/40 39/45/41
f 34/41/37 33/40/36 39/45/41 40/46/42
f 29/36/32 71/47/12 35/48/43
f 30/37/33 29/36/32 35/48/43 36/42/38
f 35/48/43 71/49/12 41/50/44
f 36/42/38 35/48/43 41/50/44 42/51/45
f 37/43/39 36/42/38 42/51/45 43/52/46
f 38/44/40 37/43/39 43/52/46 44/53/47
f 39/45/41 38/44/40 44/53/47 45/54/48
f 40/46/42 39/45/41 45/54/48 46/55/49
f 44/53/47 43/52/46 49/56/50 50/57/51
f 45/54/48 44/53/47 50/57/51 51/58/52
f 46/55/49 45/54/48 51/58/52 52/59/53
f 41/50/44 71/60/12 47/61/54
f 42/51/45 41/50/44 47/61/54 48/62/55
f 43/52/46 42/51/45 48/62/55 49/56/50
f 47/61/54 71/63/12 53/64/56
f 48/62/55 47/61/54 53/64/56 54/65/57
f 49/56/50 48/62/55 54/65/57 55/66/58
f 50/57/51 49/56/50 55/66/58 56/67/59
f 51/58/52 50/57/51 56/67/59 57/68/60
f 52/59/53 51/58/52 57/68/60 58/69/61
f 56/67/59 55/66/58 61/70/62 62/71/63
f 57/68/60 56/67/59 62/71/63 63/72/64
f 58/69/61 57/68/60 63/72/64 64/73/65
f 53/64/56 71/74/12 59/75/66
f 54/65/57 53/64/56 59/75/66 60/76/67
f 55/66/58 54/65/57 60/76/67 61/70/62
f 59/75/66 71/77/12 65/78/68
f 60/76/67 59/75/66 65/78/68 66/79/69
f 61/70/62 60/76/67 66/79/69 67/80/70
f 62/71/63 61/70/62 67/80/70 68/81/71
f 63/72/64 62/71/63 68/81/71 69/82/72
f 64/73/65 63/72/64 69/82/72 70/83/73
f 69/82/72 68/81/71 75/84/74 76/85/75
f 70/83/73 69/82/72 76/85/75 77/86/76
f 65/78/68 71/87/12 72/88/77
f 66/79/69 65/78/68 72/88/77 73/89/78
f 67/80/70 66/79/69 73/89/78 74/90/79
f 68/81/71 67/80/70 74/90/79 75/84/74
f 73/91/78 72/92/77 78/93/80 79/94/81
f 74/95/79 73/91/78 79/94/81 80/96/82
f 75/97/74 74/95/79 80/96/82 81/98/83
f 76/99/75 75/97/74 81/98/83 82/100/84
f 77/101/76 76/99/75 82/100/84 83/102/85
f 72/92/77 71/103/12 78/93/80
f 83/102/85 82/100/84 88/104/86 89/105/87
f 78/93/80 71/106/12 84/107/88
f 79/94/81 78/93/80 84/107/88 85/108/89
f 80/96/82 79/94/81 85/108/89 86/109/90
f 81/98/83 80/96/82 86/109/90 87/110/91
f 82/100/84 81/98/83 87/110/91 88/104/86
f 85/108/89 84/107/88 90/111/92 91/112/93
f 86/109/90 85/108/89 91/112/93 92/113/94
f 87/110/91 86/109/90 92/113/94 93/114/95
f 88/104/86 87/110/91 93/114/95 94/115/96
f 89/105/87 88/104/86 94/115/96 95/116/97
f 84/107/88 71/117/12 90/111/92
f 95/116/97 94/115/96 97/7/7 4/9/9
f 90/111/92 71/118/12 1/11/11
f 91/112/93 90/111/92 1/11/11 2/2/2
f 92/113/94 91/112/93 2/2/2 96/1/1
f 93/114/95 92/113/94 96/1/1 3/5/5
f 94/115/96 93/114/95 3/5/5 97/7/7
