# Blender 5.0.0
# www.blender.org
mtllib Hemisfere.mtl
o Sphere
v 0.000000 1.800000 0.000000
v 0.000000 1.765413 -0.351163
v 0.000000 1.662983 -0.688830
v 0.000000 1.272792 -1.272792
v 0.000000 0.688830 -1.662983
v 0.000000 0.351163 -1.765413
v 0.134384 1.765413 -0.324432
v 0.263604 1.662983 -0.636396
v 0.382694 1.496645 -0.923904
v 0.487076 1.272792 -1.175907
v 0.572741 1.000026 -1.382720
v 0.636396 0.688830 -1.536396
v 0.675595 0.351163 -1.631029
v 0.688830 0.000000 -1.662983
v 0.248309 1.765413 -0.248309
v 0.487077 1.662983 -0.487076
v 0.707125 1.496645 -0.707125
v 0.900000 1.272792 -0.900000
v 1.058288 1.000026 -1.058288
v 1.175907 0.688830 -1.175907
v 1.248336 0.351163 -1.248336
v 1.272792 0.000000 -1.272792
v 0.324432 1.765413 -0.134384
v 0.636396 1.662983 -0.263604
v 0.923904 1.496645 -0.382693
v 1.175907 1.272792 -0.487076
v 1.382720 1.000026 -0.572741
v 1.536396 0.688830 -0.636396
v 1.631029 0.351163 -0.675594
v 1.662983 0.000000 -0.688830
v 0.351162 1.765413 0.000000
v 0.688830 1.662983 0.000000
v 1.000026 1.496645 0.000000
v 1.272792 1.272792 0.000000
v 1.496645 1.000026 0.000000
v 1.662983 0.688830 0.000000
v 1.765413 0.351163 0.000000
v 1.800000 0.000000 0.000000
v 0.324432 1.765413 0.134384
v 0.636396 1.662983 0.263604
v 0.923904 1.496645 0.382694
v 1.175906 1.272792 0.487077
v 1.382720 1.000026 0.572741
v 1.536396 0.688830 0.636396
v 1.631029 0.351163 0.675595
v 1.662983 0.000000 0.688830
v 0.248309 1.765413 0.248309
v 0.487076 1.662983 0.487077
v 0.707125 1.496645 0.707126
v 0.900000 1.272792 0.900000
v 1.058288 1.000026 1.058288
v 1.175906 0.688830 1.175907
v 1.248335 0.351163 1.248336
v 1.272792 0.000000 1.272792
v 0.134384 1.765413 0.324432
v 0.263604 1.662983 0.636396
v 0.382693 1.496645 0.923904
v 0.487076 1.272792 1.175907
v 0.572741 1.000026 1.382720
v 0.636396 0.688830 1.536396
v 0.675594 0.351163 1.631029
v 0.688830 0.000000 1.662983
v -0.000000 1.765413 0.351162
v -0.000000 1.662983 0.688830
v -0.000000 1.496645 1.000026
v -0.000000 1.272792 1.272792
v -0.000000 1.000026 1.496645
v -0.000000 0.688830 1.662983
v -0.000000 0.351163 1.765413
v -0.000001 0.000000 1.800000
v -0.134384 1.765413 0.324432
v -0.263604 1.662983 0.636396
v -0.382694 1.496645 0.923904
v -0.487077 1.272792 1.175906
v -0.572742 1.000026 1.382720
v -0.636396 0.688830 1.536396
v -0.675595 0.351163 1.631029
v -0.688831 0.000000 1.662983
v -0.248309 1.765413 0.248309
v -0.487077 1.662983 0.487076
v -0.707126 1.496645 0.707125
v -0.900000 1.272792 0.899999
v -1.058288 1.000026 1.058288
v -1.175907 0.688830 1.175906
v -1.248336 0.351163 1.248335
v -1.272793 0.000000 1.272792
v -0.324432 1.765413 0.134384
v -0.636396 1.662983 0.263604
v -0.923904 1.496645 0.382693
v -1.175907 1.272792 0.487076
v -1.382720 1.000026 0.572741
v -1.536396 0.688830 0.636396
v -1.631029 0.351163 0.675594
v -1.662983 0.000000 0.688829
v -0.351162 1.765413 -0.000000
v -0.688830 1.662983 -0.000000
v -1.000026 1.496645 -0.000000
v -1.272792 1.272792 -0.000001
v -1.496645 1.000026 -0.000001
v -1.662983 0.688830 -0.000001
v -1.765413 0.351163 -0.000001
v -1.800000 0.000000 -0.000001
v -0.324432 1.765413 -0.134384
v -0.636396 1.662983 -0.263604
v -0.923904 1.496645 -0.382694
v -1.175906 1.272792 -0.487077
v -1.382720 1.000026 -0.572742
v -1.536396 0.688830 -0.636397
v -1.631029 0.351163 -0.675595
v -1.662983 0.000000 -0.688831
v -0.248309 1.765413 -0.248309
v -0.487076 1.662983 -0.487077
v -0.707125 1.496645 -0.707126
v -0.899999 1.272792 -0.900000
v -1.058287 1.000026 -1.058288
v -1.175906 0.688830 -1.175907
v -1.248335 0.351163 -1.248336
v -1.272791 0.000000 -1.272793
v -0.134384 1.765413 -0.324432
v -0.263604 1.662983 -0.636396
v -0.382693 1.496645 -0.923904
v -0.487076 1.272792 -1.175907
v -0.572741 1.000026 -1.382720
v -0.636395 0.688830 -1.536396
v -0.675593 0.351163 -1.631029
v -0.688829 0.000000 -1.662984
v 0.000000 1.496645 -1.000026
v 0.000001 1.000026 -1.496645
v 0.000001 0.000000 -1.800000
vn -0.0000 1.0000 -0.0000
vn -0.0000 0.9784 -0.2068
vn -0.0000 0.9195 -0.3930
vn -0.0000 0.7011 -0.7131
vn -0.0000 0.3784 -0.9256
vn -0.0000 0.1928 -0.9812
vn 0.0791 0.9784 -0.1911
vn 0.1504 0.9195 -0.3631
vn 0.2158 0.8258 -0.5210
vn 0.2729 0.7011 -0.6588
vn 0.3196 0.5500 -0.7716
vn 0.3542 0.3784 -0.8552
vn 0.3755 0.1928 -0.9065
vn 0.3808 0.0980 -0.9194
vn 0.1462 0.9784 -0.1462
vn 0.2779 0.9195 -0.2779
vn 0.3987 0.8258 -0.3987
vn 0.5042 0.7011 -0.5042
vn 0.5905 0.5500 -0.5905
vn 0.6545 0.3784 -0.6545
vn 0.6938 0.1928 -0.6938
vn 0.7037 0.0980 -0.7037
vn 0.1911 0.9784 -0.0791
vn 0.3631 0.9195 -0.1504
vn 0.5210 0.8258 -0.2158
vn 0.6588 0.7011 -0.2729
vn 0.7716 0.5500 -0.3196
vn 0.8552 0.3784 -0.3542
vn 0.9065 0.1928 -0.3755
vn 0.9194 0.0980 -0.3808
vn 0.2068 0.9784 -0.0000
vn 0.3930 0.9195 -0.0000
vn 0.5639 0.8258 -0.0000
vn 0.7131 0.7011 -0.0000
vn 0.8352 0.5500 -0.0000
vn 0.9256 0.3784 -0.0000
vn 0.9812 0.1928 -0.0000
vn 0.9952 0.0980 -0.0000
vn 0.1911 0.9784 0.0791
vn 0.3631 0.9195 0.1504
vn 0.5210 0.8258 0.2158
vn 0.6588 0.7011 0.2729
vn 0.7716 0.5500 0.3196
vn 0.8552 0.3784 0.3542
vn 0.9065 0.1928 0.3755
vn 0.9194 0.0980 0.3808
vn 0.1462 0.9784 0.1462
vn 0.2779 0.9195 0.2779
vn 0.3987 0.8258 0.3987
vn 0.5042 0.7011 0.5042
vn 0.5905 0.5500 0.5905
vn 0.6545 0.3784 0.6545
vn 0.6938 0.1928 0.6938
vn 0.7037 0.0980 0.7037
vn 0.0791 0.9784 0.1911
vn 0.1504 0.9195 0.3631
vn 0.2158 0.8258 0.5210
vn 0.2729 0.7011 0.6588
vn 0.3196 0.5500 0.7716
vn 0.3542 0.3784 0.8552
vn 0.3755 0.1928 0.9065
vn 0.3808 0.0980 0.9194
vn -0.0000 0.9784 0.2068
vn -0.0000 0.9195 0.3930
vn -0.0000 0.8258 0.5639
vn -0.0000 0.7011 0.7131
vn -0.0000 0.5500 0.8352
vn -0.0000 0.3784 0.9256
vn -0.0000 0.1928 0.9812
vn -0.0000 0.0980 0.9952
vn -0.0791 0.9784 0.1911
vn -0.1504 0.9195 0.3631
vn -0.2158 0.8258 0.5210
vn -0.2729 0.7011 0.6588
vn -0.3196 0.5500 0.7716
vn -0.3542 0.3784 0.8552
vn -0.3755 0.1928 0.9065
vn -0.3808 0.0980 0.9194
vn -0.1462 0.9784 0.1462
vn -0.2779 0.9195 0.2779
vn -0.3987 0.8258 0.3987
vn -0.5042 0.7011 0.5042
vn -0.5905 0.5500 0.5905
vn -0.6545 0.3784 0.6545
vn -0.6938 0.1928 0.6938
vn -0.7037 0.0980 0.7037
vn -0.1911 0.9784 0.0791
vn -0.3631 0.9195 0.1504
vn -0.5210 0.8258 0.2158
vn -0.6588 0.7011 0.2729
vn -0.7716 0.5500 0.3196
vn -0.8552 0.3784 0.3542
vn -0.9065 0.1928 0.3755
vn -0.9194 0.0980 0.3808
vn -0.2068 0.9784 -0.0000
vn -0.3930 0.9195 -0.0000
vn -0.5639 0.8258 -0.0000
vn -0.7131 0.7011 -0.0000
vn -0.8352 0.5500 -0.0000
vn -0.9256 0.3784 -0.0000
vn -0.9812 0.1928 -0.0000
vn -0.9952 0.0980 -0.0000
vn -0.1911 0.9784 -0.0791
vn -0.3631 0.9195 -0.1504
vn -0.5210 0.8258 -0.2158
vn -0.6588 0.7011 -0.2729
vn -0.7716 0.5500 -0.3196
vn -0.8552 0.3784 -0.3542
vn -0.9065 0.1928 -0.3755
vn -0.9194 0.0980 -0.3808
vn -0.1462 0.9784 -0.1462
vn -0.2779 0.9195 -0.2779
vn -0.3987 0.8258 -0.3987
vn -0.5042 0.7011 -0.5042
vn -0.5905 0.5500 -0.5905
vn -0.6545 0.3784 -0.6545
vn -0.6938 0.1928 -0.6938
vn -0.7037 0.0980 -0.7037
vn -0.0791 0.9784 -0.1911
vn -0.1504 0.9195 -0.3631
vn -0.2158 0.8258 -0.5210
vn -0.2729 0.7011 -0.6588
vn -0.3196 0.5500 -0.7716
vn -0.3542 0.3784 -0.8552
vn -0.3755 0.1928 -0.9065
vn -0.3808 0.0980 -0.9194
vn -0.0000 0.8258 -0.5639
vn -0.0000 0.5500 -0.8352
vn -0.0000 0.0980 -0.9952
vt 0.750000 0.379883
vt 0.750000 0.503906
vt 0.687500 0.503906
vt 0.687500 0.379883
vt 0.750000 0.255859
vt 0.687500 0.255859
vt 0.750000 0.131836
vt 0.687500 0.131836
vt 0.750000 0.000000
vt 0.687500 0.000000
vt 0.750000 0.875977
vt 0.718750 1.000000
vt 0.687500 0.875977
vt 0.750000 0.751953
vt 0.687500 0.751953
vt 0.750000 0.627930
vt 0.687500 0.627930
vt 0.625000 0.627930
vt 0.625000 0.503906
vt 0.625000 0.379883
vt 0.625000 0.255859
vt 0.625000 0.131836
vt 0.625000 0.000000
vt 0.656250 1.000000
vt 0.625000 0.875977
vt 0.625000 0.751953
vt 0.562500 0.131836
vt 0.562500 0.000000
vt 0.593750 1.000000
vt 0.562500 0.875977
vt 0.562500 0.751953
vt 0.562500 0.627930
vt 0.562500 0.503906
vt 0.562500 0.379883
vt 0.562500 0.255859
vt 0.500000 0.503906
vt 0.500000 0.379883
vt 0.500000 0.255859
vt 0.500000 0.131836
vt 0.500000 0.000000
vt 0.531250 1.000000
vt 0.500000 0.875977
vt 0.500000 0.751953
vt 0.500000 0.627930
vt 0.468750 1.000000
vt 0.437500 0.875977
vt 0.437500 0.751953
vt 0.437500 0.627930
vt 0.437500 0.503906
vt 0.437500 0.379883
vt 0.437500 0.255859
vt 0.437500 0.131836
vt 0.437500 0.000000
vt 0.375000 0.503906
vt 0.375000 0.379883
vt 0.375000 0.255860
vt 0.375000 0.131836
vt 0.375000 0.000000
vt 0.406250 1.000000
vt 0.375000 0.875977
vt 0.375000 0.751953
vt 0.375000 0.627930
vt 0.312500 0.875977
vt 0.312500 0.751953
vt 0.312500 0.627930
vt 0.312500 0.503906
vt 0.312500 0.379883
vt 0.312500 0.255860
vt 0.312500 0.131836
vt 0.312500 0.000000
vt 0.343750 1.000000
vt 0.250000 0.379883
vt 0.250000 0.255860
vt 0.250000 0.131836
vt 0.250000 0.000000
vt 0.281250 1.000000
vt 0.250000 0.875977
vt 0.250000 0.751953
vt 0.250000 0.627930
vt 0.250000 0.503906
vt 0.187500 0.751953
vt 0.187500 0.627930
vt 0.187500 0.503906
vt 0.187500 0.379883
vt 0.187500 0.255860
vt 0.187500 0.131836
vt 0.187500 0.000000
vt 0.218750 1.000000
vt 0.187500 0.875977
vt 0.125000 0.255860
vt 0.125000 0.131836
vt 0.125000 0.000000
vt 0.156250 1.000000
vt 0.125000 0.875977
vt 0.125000 0.751953
vt 0.125000 0.627930
vt 0.125000 0.503906
vt 0.125000 0.379883
vt 0.062500 0.751953
vt 0.062500 0.627930
vt 0.062500 0.503906
vt 0.062500 0.379883
vt 0.062500 0.255860
vt 0.062500 0.131836
vt 0.062500 0.000000
vt 0.093750 1.000000
vt 0.062500 0.875977
vt 0.000000 0.255860
vt 0.000000 0.131836
vt -0.000000 0.000000
vt 0.031250 1.000000
vt 0.000000 0.875977
vt 0.000000 0.751953
vt 0.000000 0.627930
vt 0.000000 0.503906
vt 0.000000 0.379883
vt 1.000000 0.503906
vt 1.000000 0.627930
vt 0.937500 0.627930
vt 0.937500 0.503906
vt 1.000000 0.379883
vt 0.937500 0.379883
vt 1.000000 0.255860
vt 0.937500 0.255860
vt 1.000000 0.131836
vt 0.937500 0.131836
vt 1.000000 0.000000
vt 0.937500 0.000000
vt 1.000000 0.875977
vt 0.968750 1.000000
vt 0.937500 0.875977
vt 1.000000 0.751953
vt 0.937500 0.751953
vt 0.875000 0.131836
vt 0.875000 0.000000
vt 0.906250 1.000000
vt 0.875000 0.875977
vt 0.875000 0.751953
vt 0.875000 0.627930
vt 0.875000 0.503906
vt 0.875000 0.379883
vt 0.875000 0.255860
vt 0.812500 0.627930
vt 0.812500 0.503906
vt 0.812500 0.379883
vt 0.812500 0.255860
vt 0.812500 0.131836
vt 0.812500 0.000000
vt 0.843750 1.000000
vt 0.812500 0.875977
vt 0.812500 0.751953
vt 0.781250 1.000000
s 1
f 128/1/128 4/2/4 10/3/10 11/4/11
f 5/5/5 128/1/128 11/4/11 12/6/12
f 6/7/6 5/5/5 12/6/12 13/8/13
f 129/9/129 6/7/6 13/8/13 14/10/14
f 2/11/2 1/12/1 7/13/7
f 3/14/3 2/11/2 7/13/7 8/15/8
f 127/16/127 3/14/3 8/15/8 9/17/9
f 4/2/4 127/16/127 9/17/9 10/3/10
f 10/3/10 9/17/9 17/18/17 18/19/18
f 11/4/11 10/3/10 18/19/18 19/20/19
f 12/6/12 11/4/11 19/20/19 20/21/20
f 13/8/13 12/6/12 20/21/20 21/22/21
f 14/10/14 13/8/13 21/22/21 22/23/22
f 7/13/7 1/24/1 15/25/15
f 8/15/8 7/13/7 15/25/15 16/26/16
f 9/17/9 8/15/8 16/26/16 17/18/17
f 22/23/22 21/22/21 29/27/29 30/28/30
f 15/25/15 1/29/1 23/30/23
f 16/26/16 15/25/15 23/30/23 24/31/24
f 17/18/17 16/26/16 24/31/24 25/32/25
f 18/19/18 17/18/17 25/32/25 26/33/26
f 19/20/19 18/19/18 26/33/26 27/34/27
f 20/21/20 19/20/19 27/34/27 28/35/28
f 21/22/21 20/21/20 28/35/28 29/27/29
f 27/34/27 26/33/26 34/36/34 35/37/35
f 28/35/28 27/34/27 35/37/35 36/38/36
f 29/27/29 28/35/28 36/38/36 37/39/37
f 30/28/30 29/27/29 37/39/37 38/40/38
f 23/30/23 1/41/1 31/42/31
f 24/31/24 23/30/23 31/42/31 32/43/32
f 25/32/25 24/31/24 32/43/32 33/44/33
f 26/33/26 25/32/25 33/44/33 34/36/34
f 31/42/31 1/45/1 39/46/39
f 32/43/32 31/42/31 39/46/39 40/47/40
f 33/44/33 32/43/32 40/47/40 41/48/41
f 34/36/34 33/44/33 41/48/41 42/49/42
f 35/37/35 34/36/34 42/49/42 43/50/43
f 36/38/36 35/37/35 43/50/43 44/51/44
f 37/39/37 36/38/36 44/51/44 45/52/45
f 38/40/38 37/39/37 45/52/45 46/53/46
f 43/50/43 42/49/42 50/54/50 51/55/51
f 44/51/44 43/50/43 51/55/51 52/56/52
f 45/52/45 44/51/44 52/56/52 53/57/53
f 46/53/46 45/52/45 53/57/53 54/58/54
f 39/46/39 1/59/1 47/60/47
f 40/47/40 39/46/39 47/60/47 48/61/48
f 41/48/41 40/47/40 48/61/48 49/62/49
f 42/49/42 41/48/41 49/62/49 50/54/50
f 48/61/48 47/60/47 55/63/55 56/64/56
f 49/62/49 48/61/48 56/64/56 57/65/57
f 50/54/50 49/62/49 57/65/57 58/66/58
f 51/55/51 50/54/50 58/66/58 59/67/59
f 52/56/52 51/55/51 59/67/59 60/68/60
f 53/57/53 52/56/52 60/68/60 61/69/61
f 54/58/54 53/57/53 61/69/61 62/70/62
f 47/60/47 1/71/1 55/63/55
f 60/68/60 59/67/59 67/72/67 68/73/68
f 61/69/61 60/68/60 68/73/68 69/74/69
f 62/70/62 61/69/61 69/74/69 70/75/70
f 55/63/55 1/76/1 63/77/63
f 56/64/56 55/63/55 63/77/63 64/78/64
f 57/65/57 56/64/56 64/78/64 65/79/65
f 58/66/58 57/65/57 65/79/65 66/80/66
f 59/67/59 58/66/58 66/80/66 67/72/67
f 65/79/65 64/78/64 72/81/72 73/82/73
f 66/80/66 65/79/65 73/82/73 74/83/74
f 67/72/67 66/80/66 74/83/74 75/84/75
f 68/73/68 67/72/67 75/84/75 76/85/76
f 69/74/69 68/73/68 76/85/76 77/86/77
f 70/75/70 69/74/69 77/86/77 78/87/78
f 63/77/63 1/88/1 71/89/71
f 64/78/64 63/77/63 71/89/71 72/81/72
f 77/86/77 76/85/76 84/90/84 85/91/85
f 78/87/78 77/86/77 85/91/85 86/92/86
f 71/89/71 1/93/1 79/94/79
f 72/81/72 71/89/71 79/94/79 80/95/80
f 73/82/73 72/81/72 80/95/80 81/96/81
f 74/83/74 73/82/73 81/96/81 82/97/82
f 75/84/75 74/83/74 82/97/82 83/98/83
f 76/85/76 75/84/75 83/98/83 84/90/84
f 81/96/81 80/95/80 88/99/88 89/100/89
f 82/97/82 81/96/81 89/100/89 90/101/90
f 83/98/83 82/97/82 90/101/90 91/102/91
f 84/90/84 83/98/83 91/102/91 92/103/92
f 85/91/85 84/90/84 92/103/92 93/104/93
f 86/92/86 85/91/85 93/104/93 94/105/94
f 79/94/79 1/106/1 87/107/87
f 80/95/80 79/94/79 87/107/87 88/99/88
f 93/104/93 92/103/92 100/108/100 101/109/101
f 94/105/94 93/104/93 101/109/101 102/110/102
f 87/107/87 1/111/1 95/112/95
f 88/99/88 87/107/87 95/112/95 96/113/96
f 89/100/89 88/99/88 96/113/96 97/114/97
f 90/101/90 89/100/89 97/114/97 98/115/98
f 91/102/91 90/101/90 98/115/98 99/116/99
f 92/103/92 91/102/91 99/116/99 100/108/100
f 98/117/98 97/118/97 105/119/105 106/120/106
f 99/121/99 98/117/98 106/120/106 107/122/107
f 100/123/100 99/121/99 107/122/107 108/124/108
f 101/125/101 100/123/100 108/124/108 109/126/109
f 102/127/102 101/125/101 109/126/109 110/128/110
f 95/129/95 1/130/1 103/131/103
f 96/132/96 95/129/95 103/131/103 104/133/104
f 97/118/97 96/132/96 104/133/104 105/119/105
f 110/128/110 109/126/109 117/134/117 118/135/118
f 103/131/103 1/136/1 111/137/111
f 104/133/104 103/131/103 111/137/111 112/138/112
f 105/119/105 104/133/104 112/138/112 113/139/113
f 106/120/106 105/119/105 113/139/113 114/140/114
f 107/122/107 106/120/106 114/140/114 115/141/115
f 108/124/108 107/122/107 115/141/115 116/142/116
f 109/126/109 108/124/108 116/142/116 117/134/117
f 114/140/114 113/139/113 121/143/121 122/144/122
f 115/141/115 114/140/114 122/144/122 123/145/123
f 116/142/116 115/141/115 123/145/123 124/146/124
f 117/134/117 116/142/116 124/146/124 125/147/125
f 118/135/118 117/134/117 125/147/125 126/148/126
f 111/137/111 1/149/1 119/150/119
f 112/138/112 111/137/111 119/150/119 120/151/120
f 113/139/113 112/138/112 120/151/120 121/143/121
f 126/148/126 125/147/125 6/7/6 129/9/129
f 119/150/119 1/152/1 2/11/2
f 120/151/120 119/150/119 2/11/2 3/14/3
f 121/143/121 120/151/120 3/14/3 127/16/127
f 122/144/122 121/143/121 127/16/127 4/2/4
f 123/145/123 122/144/122 4/2/4 128/1/128
f 124/146/124 123/145/123 128/1/128 5/5/5
f 125/147/125 124/146/124 5/5/5 6/7/6
